<svg xmlns="http://www.w3.org/2000/svg" width="435.76" height="516.79" viewBox="0 0 435.76 516.79"><g id="b34474a9-0bb1-4843-aed4-5e085fe1ab20" data-name="Layer 2"><g id="aafee130-c3b1-4f1d-9406-5eef1811cc9c" data-name="Layer 1"><path d="M217.58,516.79c-19.13-15.81-37.9-31.52-56.86-47-40-32.62-79.64-65.69-120.43-97.29-11.12-8.61-11.71-19-13-30.27-2.14-18.47-3.92-37-5.84-55.49-1.76-17-3.46-34-5.27-51-1.84-17.34-3.85-34.66-5.66-52C9,169,7.66,154.27,6.2,139.56,4.33,120.71,2.59,101.84.45,83-.51,74.6-.77,74.2,8.5,70.94,44.6,58.22,80.69,45.49,116.87,33Q164.57,16.56,212.49.76a17.65,17.65,0,0,1,10.45.06q59.61,20,119,40.51c30.08,10.37,60,21.05,90.1,31.5,2.79,1,4,2.13,3.62,5.34q-4.32,39.63-8.31,79.31c-2.17,21.49-4,43-6.25,64.49-2.11,20.49-4.58,40.94-6.72,61.43-1.87,18-3.49,36.05-5.25,54.07-.65,6.61-1.5,13.21-2,19.83-.36,4.84-3.36,7.74-6.78,10.51-23.55,19.07-47.15,38.08-70.61,57.25q-53.38,43.62-106.62,87.4C221.49,513.83,219.75,515.11,217.58,516.79ZM20.3,87.3c.39,3.51.76,6.64,1.08,9.77Q29,169.88,36.52,242.69,42,294.84,47.37,347c.37,3.58,1.12,6.41,4.29,8.88,15.21,11.87,30.21,24,45.21,36.15s29.94,24.32,44.85,36.55q27,22.17,53.93,44.44c7.39,6.1,14.75,12.23,22.17,18.37,4.55-3.8,8.72-7.37,13-10.83q40-32.67,80-65.28c24.67-20.06,49.43-40,74-60.16a9.94,9.94,0,0,0,3.29-6c2-18.71,3.69-37.46,5.64-56.17,3.09-29.82,6.37-59.61,9.49-89.42,1.82-17.4,3.42-34.81,5.25-52.21q3.19-30.28,6.68-60.56c.34-3-.8-4.07-3.37-4.94-10.08-3.41-20.1-7-30.16-10.49Q343,62,304.27,48.65C276.6,39.1,249,29.49,221.24,20a10.5,10.5,0,0,0-6.18-.12q-18.54,5.92-36.92,12.3Q133.8,47.54,89.52,63C66.58,71,43.68,79.09,20.3,87.3Z"/><path d="M20.3,87.3C43.68,79.09,66.58,71,89.52,63q44.28-15.45,88.62-30.78,18.39-6.34,36.92-12.3a10.5,10.5,0,0,1,6.18.12c27.71,9.45,55.36,19.06,83,28.61Q343,62,381.64,75.31c10.06,3.48,20.08,7.08,30.16,10.49,2.57.87,3.71,1.93,3.37,4.94q-3.53,30.27-6.68,60.56c-1.83,17.4-3.43,34.81-5.25,52.21-3.12,29.81-6.4,59.6-9.49,89.42-1.95,18.71-3.6,37.46-5.64,56.17a9.94,9.94,0,0,1-3.29,6c-24.59,20.15-49.35,40.1-74,60.16q-40.05,32.58-80,65.28c-4.25,3.46-8.42,7-13,10.83C210.4,485.26,203,479.13,195.65,473q-27-22.23-53.93-44.44Q119.36,410.25,96.87,392c-15-12.13-30-24.28-45.21-36.15-3.17-2.47-3.92-5.3-4.29-8.88Q42,294.84,36.52,242.69,28.94,169.88,21.38,97.07C21.06,93.94,20.69,90.81,20.3,87.3Zm302.18,58.35c-13.1,0-25.57,0-38.05.06a6,6,0,0,0-3.11,1.27Q262.6,160.27,244,173.67c-8.73,6.28-17.41,12.63-26.05,18.9-21.11-15.26-41.73-30.2-62.4-45a9.25,9.25,0,0,0-4.88-1.89c-11.16-.17-22.33,0-33.49-.12-3,0-4,.91-4,4q.23,69.75.18,139.49c0,3.32.89,5.36,3.72,7.39,15.67,11.27,31.12,22.85,46.67,34.29,6.47,4.76,13,9.44,19.52,14.16.6-.84.94-1.1.94-1.36.13-10.83.31-21.66.21-32.48,0-1.31-1.33-3-2.5-3.84-11.51-8.51-23.19-16.79-34.63-25.38a8,8,0,0,1-2.84-5.53c-.16-32-.1-64-.07-96,0-1.22.13-2.45.22-4.12L217.87,229,291,176.22c.13,1.46.26,2.24.26,3,0,32.33,0,64.66-.19,97a8.74,8.74,0,0,1-3.27,6c-10.91,8.21-22.11,16-33,24.21a8.91,8.91,0,0,0-3.38,5.87c-.33,9.32-.13,18.66,0,28a39.14,39.14,0,0,0,.74,5c1.33-.82,1.91-1.12,2.42-1.5,21-15.49,42-31.08,63.19-46.42,3.32-2.41,4.8-4.82,4.77-9-.17-23.17,0-46.34,0-69.5C322.49,194.67,322.48,170.52,322.48,145.65ZM161.22,209.27c0,21-.08,40.8.13,60.58,0,1.6,1.61,3.63,3,4.69,11,8.12,22,16.17,33.15,24,3.1,2.16,4.39,4.5,4.34,8.23-.18,12.32-.18,24.65-.11,37,.09,15.69.19,15.63,13,24.81,2.26,1.61,3.87,1.93,6.09.08a92.71,92.71,0,0,1,10-7.43c2.63-1.65,3.35-3.66,3.32-6.6-.14-16.15,0-32.31-.25-48.46a8.64,8.64,0,0,1,4.1-7.87c11.26-8,22.58-15.88,33.63-24.13a9.42,9.42,0,0,0,3.25-6.52c.28-18.14.21-36.3.2-54.45a35.07,35.07,0,0,0-.53-4.17c-10,7.27-19.39,14-28.64,21a6.65,6.65,0,0,0-2.12,4.58c-.28,6.48,0,13-.36,19.47a8.74,8.74,0,0,1-2.7,5.79c-6.25,5-12.92,9.37-19.26,14.2-2.56,1.94-4.49,1.87-7,0-6.49-4.93-13.25-9.5-19.66-14.52a7.92,7.92,0,0,1-2.62-5.25c-.32-6.31,0-12.65-.23-19-.06-1.66-.59-3.95-1.75-4.83C181,223.44,171.55,216.73,161.22,209.27Zm56.73-37,43.44-31.5c-.39-.8-.46-1.21-.7-1.36-13.42-8.63-26.81-17.32-40.37-25.74-1.24-.77-3.88-.49-5.26.33-8.56,5.13-17,10.52-25.38,15.88-5.14,3.27-10.21,6.66-15.76,10.3Z" fill="#fff"/><path d="M322.48,145.65c0,24.87,0,49,0,73.16,0,23.16-.15,46.33,0,69.5,0,4.16-1.45,6.57-4.77,9-21.16,15.34-42.14,30.93-63.19,46.42-.51.38-1.09.68-2.42,1.5a39.14,39.14,0,0,1-.74-5c-.08-9.33-.28-18.67,0-28a8.91,8.91,0,0,1,3.38-5.87c10.91-8.2,22.11-16,33-24.21a8.74,8.74,0,0,0,3.27-6c.22-32.33.18-64.66.19-97,0-.77-.13-1.55-.26-3L217.87,229l-73.32-52.84c-.09,1.67-.22,2.9-.22,4.12,0,32-.09,64,.07,96a8,8,0,0,0,2.84,5.53c11.44,8.59,23.12,16.87,34.63,25.38,1.17.86,2.48,2.53,2.5,3.84.1,10.82-.08,21.65-.21,32.48,0,.26-.34.52-.94,1.36-6.51-4.72-13.05-9.4-19.52-14.16-15.55-11.44-31-23-46.67-34.29-2.83-2-3.72-4.07-3.72-7.39q.06-69.75-.18-139.49c0-3.13,1-4.07,4-4,11.16.1,22.33-.05,33.49.12a9.25,9.25,0,0,1,4.88,1.89c20.67,14.84,41.29,29.78,62.4,45,8.64-6.27,17.32-12.62,26.05-18.9Q262.6,160.28,281.32,147a6,6,0,0,1,3.11-1.27C296.91,145.62,309.38,145.65,322.48,145.65Z"/><path d="M161.22,209.27c10.33,7.46,19.8,14.17,29.06,21.15,1.16.88,1.69,3.17,1.75,4.83.21,6.33-.09,12.67.23,19a7.92,7.92,0,0,0,2.62,5.25c6.41,5,13.17,9.59,19.66,14.52,2.51,1.91,4.44,2,7,0,6.34-4.83,13-9.25,19.26-14.2a8.74,8.74,0,0,0,2.7-5.79c.38-6.48.08-13,.36-19.47A6.65,6.65,0,0,1,246,230c9.25-7,18.67-13.77,28.64-21a35.07,35.07,0,0,1,.53,4.17c0,18.15.08,36.31-.2,54.45a9.42,9.42,0,0,1-3.25,6.52c-11.05,8.25-22.37,16.15-33.63,24.13a8.64,8.64,0,0,0-4.1,7.87c.25,16.15.11,32.31.25,48.46,0,2.94-.69,4.95-3.32,6.6a92.71,92.71,0,0,0-10,7.43c-2.22,1.85-3.83,1.53-6.09-.08-12.83-9.18-12.93-9.12-13-24.81-.07-12.32-.07-24.65.11-37,.05-3.73-1.24-6.07-4.34-8.23-11.19-7.79-22.19-15.84-33.15-24-1.43-1.06-3-3.09-3-4.69C161.14,250.07,161.22,230.28,161.22,209.27Z"/><path d="M218,172.29l-44-32.09c5.55-3.64,10.62-7,15.76-10.3,8.41-5.36,16.82-10.75,25.38-15.88,1.38-.82,4-1.1,5.26-.33,13.56,8.42,27,17.11,40.37,25.74.24.15.31.56.7,1.36Z"/></g></g></svg>