<svg xmlns="http://www.w3.org/2000/svg" width="217.38" height="257.47" viewBox="0 0 217.38 257.47"><g id="edf8ef3b-07bf-4b42-b9eb-cb67ec304c42" data-name="Layer 2"><g id="f017028b-6fd7-469b-bf2c-9f172920ba5a" data-name="Layer 1"><path d="M108.46,257.47c-6.28-5-12.49-10-18.69-15L31.42,195.64c-4.28-3.44-8.48-7-12.83-10.35A8.6,8.6,0,0,1,15.23,179c-1.78-15.53-3.65-31-5.38-46.58C8.11,116.75,6.5,101,4.82,85.32,3.24,70.59,1.67,55.85,0,41.12c-.21-2,1.08-2.39,2.36-2.88,6.73-2.52,13.46-5.05,20.21-7.49Q64.63,15.51,106.7.39a6.29,6.29,0,0,1,4-.13Q162.36,19,214,38c3.65,1.33,3.62,1.54,3.21,5.37C216,54.06,215,64.82,213.83,75.57c-1.07,10-2.21,20-3.31,30-.88,8-1.71,16-2.62,23.93-1.07,9.43-2.21,18.85-3.3,28.28-.87,7.56-1.65,15.14-2.63,22.69a5.81,5.81,0,0,1-1.72,3.47q-14.52,12-29.22,23.76-29.28,23.49-58.63,46.9C111.19,255.58,109.9,256.43,108.46,257.47Zm.15-8.87,17.42-14q20.78-16.71,41.56-33.41c8.83-7.08,17.7-14.09,26.51-21.17a3.72,3.72,0,0,0,1.36-2.15c1.22-11,2.31-22,3.51-33.06,1.89-17.38,3.85-34.76,5.77-52.14q2.5-22.53,5-45.06c.41-3.84.33-3.8-3.34-5.1q-9.62-3.41-19.21-6.9c-12.38-4.54-24.72-9.17-37.11-13.68q-19.77-7.2-39.59-14.22a5.14,5.14,0,0,0-3-.19c-3.36,1-6.66,2.27-10,3.48Q75.19,19.1,52.91,27.25q-20.29,7.47-40.56,15c-5.06,1.89-5,2-4.43,7.54q3.83,34.4,7.68,68.78c2.12,18.93,4.38,37.84,6.34,56.79a8.38,8.38,0,0,0,3.62,6.39c10,7.83,19.91,15.78,29.81,23.74q19.56,15.73,39.05,31.56C99.07,240.84,103.71,244.62,108.61,248.6Z"/><path d="M108.61,248.6c-4.9-4-9.54-7.76-14.19-11.52q-19.51-15.79-39.05-31.56c-9.9-8-19.81-15.91-29.81-23.74a8.38,8.38,0,0,1-3.62-6.39c-2-18.95-4.22-37.86-6.34-56.79Q11.73,84.22,7.92,49.82c-.62-5.57-.63-5.65,4.43-7.54q20.25-7.58,40.56-15Q75.19,19.08,97.48,11c3.31-1.21,6.61-2.44,10-3.48a5.14,5.14,0,0,1,3,.19q19.82,7.05,39.59,14.22c12.39,4.51,24.73,9.14,37.11,13.68q9.59,3.51,19.21,6.9c3.67,1.3,3.75,1.26,3.34,5.1q-2.46,22.53-5,45.06c-1.92,17.38-3.88,34.76-5.77,52.14-1.2,11-2.29,22.05-3.51,33.06A3.72,3.72,0,0,1,194.1,180c-8.81,7.08-17.68,14.09-26.51,21.17Q146.79,217.85,126,234.58Zm0-5.25c6.28-5.06,12.45-10.08,18.67-15q18-14.37,36-28.68c8-6.38,16.12-12.64,24-19.15,1.69-1.39,4.23-2.19,4.41-5.19.31-5,.94-10,1.49-14.95q3.76-34.16,7.57-68.3c1.59-14.36,3.11-28.74,4.69-43.1.16-1.52.1-2.54-1.69-3.18C194.48,42.45,185.29,39,176,35.61c-11.24-4.08-22.51-8-33.75-12.12-10.56-3.83-21.09-7.77-31.66-11.58a5.24,5.24,0,0,0-3.26-.22c-16,5.74-31.91,11.58-47.86,17.39C44.26,34.64,29,40.24,13.75,45.71c-1.67.6-2.08,1.3-1.89,3,2.17,19.34,4.24,38.69,6.38,58,2.44,21.95,5,43.89,7.3,65.86A10.3,10.3,0,0,0,30,180.4c10.57,8.19,21,16.53,31.44,24.9Q85,224.26,108.62,243.35Z" fill="#cbed36"/><path d="M108.62,243.35q-23.64-19.07-47.2-38C51,196.93,40.55,188.59,30,180.4a10.3,10.3,0,0,1-4.44-7.79c-2.28-22-4.86-43.91-7.3-65.86-2.14-19.35-4.21-38.7-6.38-58-.19-1.7.22-2.4,1.89-3C29,40.24,44.26,34.64,59.51,29.08c15.95-5.81,31.89-11.65,47.86-17.39a5.24,5.24,0,0,1,3.26.22c10.57,3.81,21.1,7.75,31.66,11.58,11.24,4.07,22.51,8,33.75,12.12,9.25,3.35,18.44,6.84,27.71,10.14,1.79.64,1.85,1.66,1.69,3.18-1.58,14.36-3.1,28.74-4.69,43.1q-3.75,34.16-7.57,68.3c-.55,5-1.18,9.95-1.49,14.95-.18,3-2.72,3.8-4.41,5.19-7.9,6.51-16,12.77-24,19.15q-18,14.31-36,28.68C121.07,233.27,114.9,238.29,108.62,243.35Zm-.07-6.45c.75-.56,1.41-1,2-1.54q22.26-17.88,44.52-35.76c10-8,20-15.92,29.95-24a5.27,5.27,0,0,0,1.73-3.19c1.57-13.29,3-26.59,4.5-39.89q3.13-28.41,6.28-56.81c.87-7.92,1.67-15.84,2.52-23.76.13-1.21.2-2.09-1.34-2.64-10.59-3.76-21.14-7.64-31.7-11.47q-28.34-10.3-56.69-20.54a5.17,5.17,0,0,0-3.23,0C99.4,20,91.7,22.85,84,25.66Q51.28,37.56,18.54,49.43c-1.35.49-1.65,1.14-1.47,2.55.85,6.84,1.56,13.7,2.33,20.56q2.87,25.83,5.75,51.66c1.77,15.74,3.66,31.48,5.35,47.23a6.45,6.45,0,0,0,2.61,4.89q16.53,13,32.92,26.16C80.16,213.85,94.22,225.3,108.55,236.9Z"/><path d="M108.55,236.9C94.22,225.3,80.16,213.85,66,202.48Q49.65,189.3,33.11,176.32a6.45,6.45,0,0,1-2.61-4.89c-1.69-15.75-3.58-31.49-5.35-47.23Q22.23,98.37,19.4,72.54c-.77-6.86-1.48-13.72-2.33-20.56-.18-1.41.12-2.06,1.47-2.55Q51.29,37.58,84,25.66C91.7,22.85,99.4,20,107.14,17.31a5.17,5.17,0,0,1,3.23,0q28.37,10.2,56.69,20.54c10.56,3.83,21.11,7.71,31.7,11.47,1.54.55,1.47,1.43,1.34,2.64-.85,7.92-1.65,15.84-2.52,23.76q-3.12,28.41-6.28,56.81c-1.48,13.3-2.93,26.6-4.5,39.89a5.27,5.27,0,0,1-1.73,3.19c-9.94,8.05-20,16-29.95,24q-22.27,17.86-44.52,35.76C110,235.87,109.3,236.34,108.55,236.9Zm0-6.54c.66-.5,1.19-.88,1.7-1.28,8.63-7,17.23-13.94,25.89-20.85q22.13-17.67,44.28-35.31a4.41,4.41,0,0,0,1.66-2.54c1.75-15.33,3.4-30.67,5.06-46q2.19-20.2,4.36-40.4c1-9.38,2-18.77,3.17-28.14.22-1.85-.46-2.55-2.11-3.13C182.75,49.19,173,45.58,163.2,42q-26.59-9.68-53.2-19.3a3.71,3.71,0,0,0-2.3-.11Q93.2,27.73,78.74,33c-18,6.59-36,13.28-54,19.79-1.93.7-2.27,1.52-2.05,3.35C24,67.51,25.21,78.94,26.5,90.36q4.44,39.52,9,79a6.41,6.41,0,0,0,2.11,3.84c15.19,12.29,30.49,24.45,45.72,36.68C91.7,216.65,100,223.45,108.55,230.36Z" fill="#e7e4d1"/><path d="M108.55,230.36c-8.53-6.91-16.85-13.71-25.24-20.44-15.23-12.23-30.53-24.39-45.72-36.68a6.41,6.41,0,0,1-2.11-3.84q-4.61-39.51-9-79C25.21,78.94,24,67.51,22.64,56.1c-.22-1.83.12-2.65,2.05-3.35,18.05-6.51,36-13.2,54.05-19.79q14.45-5.26,29-10.35a3.71,3.71,0,0,1,2.3.11q26.61,9.62,53.2,19.3c9.79,3.56,19.55,7.17,29.36,10.67,1.65.58,2.33,1.28,2.11,3.13-1.13,9.37-2.15,18.76-3.17,28.14q-2.2,20.19-4.36,40.4c-1.66,15.35-3.31,30.69-5.06,46a4.41,4.41,0,0,1-1.66,2.54q-22.11,17.7-44.28,35.31c-8.66,6.91-17.26,13.9-25.89,20.85C109.74,229.48,109.21,229.86,108.55,230.36Zm.18-11.66c2-1.66,4-3.22,5.86-4.75l31.46-25.18c8.52-6.8,17.07-13.56,25.53-20.42a5.38,5.38,0,0,0,1.88-3.13c1.58-13.29,3-26.59,4.48-39.89,2.32-21.22,4.59-42.44,6.94-63.66.16-1.49-.15-2.15-1.63-2.68-11.12-4-22.2-8.06-33.29-12.12q-19.17-7-38.33-14.06a7.87,7.87,0,0,0-5.88,0C90.46,38.54,75.12,44.11,59.8,49.69Q47,54.37,34.14,59c-1.16.42-2.18.66-1.94,2.48,1.15,9,2.14,17.93,3.16,26.9q4.32,38.31,8.69,76.62a5.39,5.39,0,0,0,1.83,3.18c7,5.71,14.07,11.27,21.1,16.92C80.85,196.24,94.71,207.41,108.73,218.7Z"/><path d="M108.73,218.7c-14-11.29-27.88-22.46-41.75-33.6-7-5.65-14.12-11.21-21.1-16.92A5.39,5.39,0,0,1,44.05,165q-4.42-38.29-8.69-76.62c-1-9-2-17.95-3.16-26.9C32,59.66,33,59.42,34.14,59Q47,54.35,59.8,49.69c15.32-5.58,30.66-11.15,46-16.84a7.87,7.87,0,0,1,5.88,0Q130.79,39.89,150,46.87C161.05,50.93,172.13,55,183.25,59c1.48.53,1.79,1.19,1.63,2.68-2.35,21.22-4.62,42.44-6.94,63.66-1.45,13.3-2.9,26.6-4.48,39.89a5.38,5.38,0,0,1-1.88,3.13c-8.46,6.86-17,13.62-25.53,20.42L114.59,214C112.68,215.48,110.78,217,108.73,218.7Zm-48.18-65c-2.22,4.2-4.11,8.1-6.31,11.82-1.13,1.93-1,3,.81,4.4,9.2,7.14,18.3,14.41,27.42,21.65,6,4.78,12,9.58,18.23,14.52l7.77-17.22,8.36,17.22c7.16-5.74,14-11.31,21-16.8q12.42-9.86,24.94-19.6c1.57-1.22,1.95-2.09.74-4-2.37-3.7-4.34-7.66-6.65-11.83l13.15.7c3-27.28,5.94-54.23,8.94-81.56l-18.3,2.9c3.12-5.69,6.07-11.1,9.13-16.68L116.61,39.94l-8,15.73c-2.33-4.77-4.49-9.07-6.52-13.43-.79-1.7-1.51-2.24-3.52-1.49-12.43,4.64-24.94,9.1-37.42,13.63-4.45,1.61-8.89,3.25-13.64,5l9.15,16.58L38.41,73c.64,5.79,1.23,11.08,1.81,16.37q3.48,31.46,6.89,62.93c.2,1.86.84,2.36,2.6,2.18C53.18,154.14,56.67,154,60.55,153.68Z" fill="#ccee40"/><path d="M60.55,153.68c-3.88.28-7.37.46-10.84.8-1.76.18-2.4-.32-2.6-2.18q-3.36-31.49-6.89-62.93c-.58-5.29-1.17-10.58-1.81-16.37l18.22,2.94L47.48,59.36c4.75-1.73,9.19-3.37,13.64-5,12.48-4.53,25-9,37.42-13.63,2-.75,2.73-.21,3.52,1.49,2,4.36,4.19,8.66,6.52,13.43l8-15.73,53.15,19.29c-3.06,5.58-6,11-9.13,16.68l18.3-2.9c-3,27.33-6,54.28-8.94,81.56l-13.15-.7c2.31,4.17,4.28,8.13,6.65,11.83,1.21,1.88.83,2.75-.74,4q-12.52,9.72-24.94,19.6c-6.94,5.49-13.82,11.06-21,16.8l-8.36-17.22-7.77,17.22c-6.2-4.94-12.2-9.74-18.23-14.52C73.35,184.31,64.25,177,55.05,169.9c-1.81-1.41-1.94-2.47-.81-4.4C56.44,161.78,58.33,157.88,60.55,153.68ZM108.7,115l32.05-24.51a14.67,14.67,0,0,1,.23,1.58c0,15.2,0,30.41-.1,45.6a3.86,3.86,0,0,1-1.44,2.55c-4.83,3.94-9.76,7.74-14.62,11.64a2.8,2.8,0,0,0-1.13,1.68c-.1,4.81-.06,9.62-.06,14.78.93-.61,1.55-.95,2.1-1.38,8.57-6.74,17.11-13.53,25.73-20.21a4.4,4.4,0,0,0,1.86-3.94q-.06-31.3,0-62.6c0-.71-.11-1.41-.19-2.3-5.36,0-10.52,0-15.68,0a3.29,3.29,0,0,0-1.78.68c-4.51,3.41-9,6.87-13.47,10.31s-9,6.84-13.5,10.28C101,93.41,93.2,87.88,85.79,81.94c-3.5-2.81-6.91-4.61-11.52-4.11a92.43,92.43,0,0,1-9.84.06,6,6,0,0,0-.22.91c.06,21.77.1,43.54.24,65.32A4.2,4.2,0,0,0,66,146.85c7.84,6.21,15.75,12.33,23.66,18.46,1.32,1,2.71,2,4.31,3.11,0-4.78.1-9.14-.07-13.48a4.94,4.94,0,0,0-1.52-3.24q-6.87-5.76-14-11.17a4,4,0,0,1-1.81-3.68c.07-14.3.06-28.59.08-42.89V90.6Zm-.06,65.27c1.76-1.34,3.36-2.6,5-3.82a4.57,4.57,0,0,0,2-4.15c-.14-7,0-14-.09-21a4.33,4.33,0,0,1,1.84-4c4.66-3.5,9.15-7.21,13.76-10.78a4.13,4.13,0,0,0,1.84-3.7c-.11-7.07-.06-14.14-.06-21.2v-5c-4.34,3.32-8.31,6.3-12.19,9.39-.44.35-.52,1.32-.53,2,0,3.12.08,6.25,0,9.37a3.68,3.68,0,0,1-1.08,2.47c-3.34,2.77-6.8,5.38-10.4,8.19a62.21,62.21,0,0,0-5.93-4.61c-4.43-2.72-6.55-6.34-5.49-11.6.81-4-.91-6.74-4.33-8.86-2.86-1.77-5.43-4-8.39-6.25-.07.89-.13,1.29-.13,1.69,0,7.8.24,15.61.08,23.41,0,2.38.43,3.92,2.43,5.35,4.33,3.09,8.45,6.48,12.68,9.71a5.46,5.46,0,0,1,2.44,5c-.21,4.68.33,9.42-.19,14-.7,6.22.85,11,6.48,14.15ZM127.35,75c-5.91-3.78-11.51-7.45-17.23-10.93a3.61,3.61,0,0,0-3.12.14c-5.62,3.48-11.14,7.13-16.9,10.86l18.6,14.19Z"/><path d="M108.7,115,76.63,90.6V94c0,14.3,0,28.59-.08,42.89a4,4,0,0,0,1.81,3.68q7.15,5.4,14,11.17a4.94,4.94,0,0,1,1.52,3.24c.17,4.34.07,8.7.07,13.48-1.6-1.15-3-2.09-4.31-3.11-7.91-6.13-15.82-12.25-23.66-18.46a4.2,4.2,0,0,1-1.57-2.73c-.14-21.78-.18-43.55-.24-65.32a6,6,0,0,1,.22-.91,92.43,92.43,0,0,0,9.84-.06c4.61-.5,8,1.3,11.52,4.11,7.41,5.94,15.17,11.47,22.9,17.25,4.51-3.44,9-6.85,13.5-10.28s9-6.9,13.47-10.31a3.29,3.29,0,0,1,1.78-.68c5.16,0,10.32,0,15.68,0,.08.89.19,1.59.19,2.3q0,31.31,0,62.6a4.4,4.4,0,0,1-1.86,3.94c-8.62,6.68-17.16,13.47-25.73,20.21-.55.43-1.17.77-2.1,1.38,0-5.16,0-10,.06-14.78a2.8,2.8,0,0,1,1.13-1.68c4.86-3.9,9.79-7.7,14.62-11.64a3.86,3.86,0,0,0,1.44-2.55c.1-15.19.1-30.4.1-45.6a14.67,14.67,0,0,0-.23-1.58Z" fill="#ccee40"/><path d="M108.64,180.27l-.28-.15c-5.63-3.13-7.18-7.93-6.48-14.15.52-4.62,0-9.36.19-14a5.46,5.46,0,0,0-2.44-5c-4.23-3.23-8.35-6.62-12.68-9.71-2-1.43-2.47-3-2.43-5.35.16-7.8,0-15.61-.08-23.41,0-.4.06-.8.13-1.69,3,2.23,5.53,4.48,8.39,6.25,3.42,2.12,5.14,4.84,4.33,8.86-1.06,5.26,1.06,8.88,5.49,11.6a62.21,62.21,0,0,1,5.93,4.61c3.6-2.81,7.06-5.42,10.4-8.19a3.68,3.68,0,0,0,1.08-2.47c.11-3.12,0-6.25,0-9.37,0-.68.09-1.65.53-2,3.88-3.09,7.85-6.07,12.19-9.39v5c0,7.06-.05,14.13.06,21.2a4.13,4.13,0,0,1-1.84,3.7c-4.61,3.57-9.1,7.28-13.76,10.78a4.33,4.33,0,0,0-1.84,4c.06,7,0,14,.09,21a4.57,4.57,0,0,1-2,4.15C112,177.67,110.4,178.93,108.64,180.27Z" fill="#ccee40"/><path d="M127.35,75,108.7,89.29,90.1,75.1c5.76-3.73,11.28-7.38,16.9-10.86a3.61,3.61,0,0,1,3.12-.14C115.84,67.58,121.44,71.25,127.35,75Z" fill="#ccee40"/></g></g></svg>