<svg xmlns="http://www.w3.org/2000/svg" width="438.44" height="553.49" viewBox="0 0 438.44 553.49"><g id="b7c9abd6-961e-4328-b8f1-6d001e4f0f69" data-name="Layer 2"><g id="e19c1ab4-51c0-4818-b54c-bb712c50aa3c" data-name="Layer 1"><path d="M20.78,142l64.57,46.16c3.66,2.62,7,5.71,11,7.82,5.78,3.1,7,7.54,7.15,13.83q.93,55.9,2.83,111.8c.18,5.71-1.41,9.43-6.25,12.12-2.28,1.27-4.35,2.92-7.18,4.85-1-11.94-1.89-23.18-2.77-34.42-.67-8.62-1.83-17.25-1.73-25.87.09-9-3.38-16.16-8.19-23.4-16.57-24.93-32-50.65-49.41-75-8.11-11.36-8.87-23.55-10.52-36.1C20.2,143.46,20.41,143.14,20.78,142Z" fill="#ebe8d9"/><path d="M72.71,353.72c-1.14-9.06-2.6-17.28-3.08-25.56-.29-5.07-2.69-8.3-6.15-11.32C55.61,310,47.65,303.17,40,296.05a12.66,12.66,0,0,1-4-7c-3.47-30.57-6.64-61.18-9.88-91.78-.08-.81,0-1.64,0-3.8,4.42,6.75,8.12,12.54,12,18.24,12.33,18.34,24.73,36.63,37,55a11.11,11.11,0,0,1,1.66,5.13C78.63,294.38,80,317,82.37,339.48,83.25,347.74,77.51,349.63,72.71,353.72Z" fill="#ccec33"/><path d="M74.83,374.21l36.48-27.93q13.47,10.31,26.91,20.57c11.79,9,23.57,18,35.45,26.81,2.48,1.85,3,3.4,1.3,6.13-4,6.46-7.73,13.1-12.08,20.53l-41.7-43.71c0,5.42-.36,10.37.17,15.22.22,2,2.1,4,3.68,5.58,10.72,10.43,21.55,20.74,32.41,31.14l-4.72,7.94Z" fill="#ebe8d9"/><path d="M24.27,122.09,139.81,80.61c2.7,10.1,5.28,19.79,8,30.08-10.23,3.4-20.32,6.61-30.3,10.12q-29.87,10.48-59.61,21.33c-3,1.07-5.07,1.05-7.68-.92-7.16-5.4-14.58-10.45-21.87-15.68C27.07,124.6,25.9,123.47,24.27,122.09Z" fill="#ccec33"/><path d="M137.34,463.17c-3.46-2.67-6.73-5.13-9.93-7.68Q93.2,428.39,59,401.26c-1.16-.93-2.36-1.83-3.61-2.65-5.3-3.49-8.46-7.69-9.08-14.66-1.87-20.86-4.67-41.64-7.1-62.45a24.56,24.56,0,0,1,0-2.5c6.69,5.69,13,10.29,13.55,20.3.72,13.92,3.21,27.75,5.16,41.59a8.83,8.83,0,0,0,2.8,5.27Q99.27,417,138.05,447.61c5.64,4.46,5.74,4.3,2.13,10.36C139.26,459.52,138.45,461.13,137.34,463.17Z" fill="#cbec39"/><path d="M136.85,487.7q-27.73-14.55-55.47-29.07c-4.16-2.18-7-5-8-10-1.1-5.15-3.16-10.1-5.28-16.62l69.14,55.34Z" fill="#cbec39"/><path d="M20.24,143.75c1.65,12.55,2.41,24.74,10.52,36.1,17.38,24.35,32.84,50.07,49.41,75,4.81,7.24,8.28,14.4,8.19,23.4-.1,8.62,1.06,17.25,1.73,25.87.88,11.24,1.81,22.48,2.77,34.42,2.83-1.93,4.9-3.58,7.18-4.85,4.84-2.69,6.43-6.41,6.25-12.12q-1.85-55.89-2.83-111.8c-.1-6.29-1.37-10.73-7.15-13.83-3.92-2.11-7.3-5.2-11-7.82L20.78,142C20.41,143.14,20.2,143.46,20.24,143.75Z" fill="none"/><path d="M152.73,436.49l4.72-7.94c-10.86-10.4-21.69-20.71-32.41-31.14-1.58-1.55-3.46-3.6-3.68-5.58-.53-4.85-.17-9.8-.17-15.22l41.7,43.71c4.35-7.43,8.08-14.07,12.08-20.53,1.7-2.73,1.18-4.28-1.3-6.13-11.88-8.85-23.66-17.84-35.45-26.81q-13.47-10.25-26.91-20.57L74.83,374.21Z" fill="none"/><path d="M138.05,447.61Q99.29,417,60.72,386.16a8.83,8.83,0,0,1-2.8-5.27c-2-13.84-4.44-27.67-5.16-41.59-.51-10-6.86-14.61-13.55-20.3a24.56,24.56,0,0,0,0,2.5c2.43,20.81,5.23,41.59,7.1,62.45.62,7,3.78,11.17,9.08,14.66,1.25.82,2.45,1.72,3.61,2.65q34.2,27.12,68.4,54.23c3.2,2.55,6.47,5,9.93,7.68,1.11-2,1.92-3.65,2.84-5.2C143.79,451.91,143.69,452.07,138.05,447.61Z" fill="none"/><path d="M73.34,448.67c1,4.92,3.88,7.78,8,10q27.75,14.49,55.47,29.07l.35-.31L68.06,432.05C70.18,438.57,72.24,443.52,73.34,448.67Z" fill="none"/><path d="M63.48,316.84c3.46,3,5.86,6.25,6.15,11.32.48,8.28,1.94,16.5,3.08,25.56,4.8-4.09,10.54-6,9.66-14.24-2.39-22.5-3.74-45.1-5.61-67.65a11.11,11.11,0,0,0-1.66-5.13c-12.28-18.38-24.68-36.67-37-55-3.84-5.7-7.54-11.49-12-18.24,0,2.16-.07,3,0,3.8,3.24,30.6,6.41,61.21,9.88,91.78a12.66,12.66,0,0,0,4,7C47.65,303.17,55.61,310,63.48,316.84Z" fill="none"/><path d="M24.27,122.09c1.63,1.38,2.8,2.51,4.11,3.45,7.29,5.23,14.71,10.28,21.87,15.68,2.61,2,4.72,2,7.68.92q29.73-10.86,59.61-21.33c10-3.51,20.07-6.72,30.3-10.12-2.75-10.29-5.33-20-8-30.08Z" fill="none"/><path d="M219,28.53c6.34,7.45,12.29,14.35,18.15,21.33,3.1,3.7,6.16,7.44,9,11.3,2.13,2.85,4.14,3.59,7.56,1.73,9.06-4.91,18.34-9.43,27.54-14.1,1.74-.88,3.52-1.7,6.39-3.09-2.06,7.6-3.84,14.09-5.56,20.6-2.6,9.81-5.3,19.6-7.64,29.47-.84,3.51-2.42,4.15-5.63,3.33q-23.21-5.94-46.48-11.64a11.41,11.41,0,0,0-3.79-.23v18.89a11.7,11.7,0,0,1,3.6.57q50.87,17.09,101.62,34.49C338,146,352.11,150.87,367.07,156c-3.86,2.72-7.1,5-10.31,7.27-8.52,6.11-16.94,12.38-25.63,18.25a8.35,8.35,0,0,1-6.61.85c-34.26-12.92-68.42-26.1-102.66-39.06a7,7,0,0,0-3.27-.27v26.75a7,7,0,0,1,3.09.89c11.49,7,22.88,14.13,34.93,21.63l-37.8,28.21-.22-.16v18.92l.45.34,41.19-30.51c4.28-3.17,8.56-6.33,12.9-9.41a7,7,0,0,1,3.51-1.63c10.29-.13,20.58-.07,31.08-.07.12,1.52.26,2.47.26,3.43,0,41.33.11,82.65,0,124,0,2-.93,4.76-2.4,5.87C287,345.33,268.33,359.13,249,373.5c0-6.1-.06-11.79,0-17.48.15-13.24.23-13.17,10.83-20.91q10.88-7.94,21.4-16.34a7.26,7.26,0,0,0,2.7-4.85c0-30-.2-60-.37-90a7.58,7.58,0,0,0-.66-1.67l-64.29,48v43.56c1.23.19,2.48-.26,4-1.5,5.24-4.35,11-8.05,16.21-12.45a10.31,10.31,0,0,0,3.34-6.39c.57-6.91-1.6-14.91,1.21-20.53,2.74-5.45,10.29-8.51,15.77-12.56,2.4-1.77,4.89-3.4,7.75-5.39a20.61,20.61,0,0,1,.6,3.27c0,15.65.14,31.31-.15,47a9.56,9.56,0,0,1-3.3,6.44c-8.82,7-18,13.62-27,20.39a9.7,9.7,0,0,0-4.17,8.5c.17,14,.16,28-.14,42,0,2-1.6,4.44-3.16,5.92-3.23,3.05-6.94,5.6-10.59,8.46l-.37-.28v32.13c1.33.36,2.52-.12,4-1.34,8-6.48,16.13-12.77,24.78-19.58,5.63,9.25,11,17.85,16,26.6.52.9-.07,3.27-.95,4C248.31,450.83,234,463,219.11,475.68l-.52-.45v14.34l.59.52L269.85,447l16.69,28.13L219.07,531l-.48-.39v22.86a7.79,7.79,0,0,0,4.79-1.79c5.16-3.65,10-7.87,15.52-10.87,21.16-11.48,42.5-22.59,63.81-33.79q34.4-18.06,68.85-36a13.33,13.33,0,0,0,7.18-8.29c4-12.62,8.51-25.06,12.38-37.71,2.51-8.19,6.39-15,13.39-20.31,2.32-1.74,4-5.32,4.48-8.29,1.54-9.5,2.41-19.1,3.48-28.67q2.86-25.75,5.65-51.51,2.72-24.76,5.4-49.53c1.56-14.53,3.15-29.07,4.57-43.61,1.51-15.38,2.8-30.78,4.27-46.17,1.94-20.34,3.89-40.69,6-61,.38-3.59-1.06-5.06-4.16-6.16-12-4.29-24-8.81-36-13.13Q352.66,80.22,307,64c-3.29-1.17-4.46-2.31-3.25-6.06,2.14-6.6,3.52-13.45,5.22-20.2l6.5-25.6c-2.67,1.2-4.49,1.95-6.24,2.83-16.82,8.36-33.68,16.66-50.41,25.21-3.05,1.56-4.85,1.66-7.07-1.25-4.13-5.43-8.65-10.56-13-15.79C232.31,15.49,225.9,7.91,219.23,0l-.64.7V29Zm66.64,407.82c-4.67-7.33-4.59-7.25.57-12.23,9.33-9,18.65-18,27.75-27.28a12.11,12.11,0,0,0,2.95-6.45c.67-4.56.69-9.21,1-14.62L275.52,420l-14.25-23.49c22-16.79,43.92-33.49,65.94-50.29l36.19,28.13Zm77.08,18c-.43,1.2-2,2.18-3.31,2.84-14.26,7.4-28.6,14.66-42.84,22.09-4.94,2.58-9.67,5.56-14.5,8.35l-.37-.58,66.61-52.89.85.55C367.06,441.3,365.05,447.89,362.73,454.38Zm34.92-116.72c-1.78,16.55-3.53,33.1-5.55,49.62a10.23,10.23,0,0,1-3.15,6.23c-17,13.65-34.18,27-51.26,40.55-9.9,7.84-19.7,15.81-29.55,23.71-2.06,1.66-4.14,3.3-6.64,5.29L295,452.39c5.16-4.18,10.25-8.37,15.41-12.47,22.78-18.1,45.61-36.14,68.28-54.36a9.66,9.66,0,0,0,3-5.85c2.05-15.5,3.73-31,5.79-46.54a12.22,12.22,0,0,1,3.14-5.88c2.3-2.59,5.07-4.77,8.85-8.23C398.74,326.2,398.26,331.94,397.65,337.66ZM409.58,225c-2.18,20.51-4.47,41-6.45,61.54a13.73,13.73,0,0,1-5,9.78Q385,307.75,372.21,319.63a9.9,9.9,0,0,0-2.89,5.44c-1.3,9.22-2.24,18.48-3.42,28.62A95,95,0,0,1,358,347a6.37,6.37,0,0,1-1.36-4.44q2.67-35.58,5.62-71.15a8.3,8.3,0,0,1,1.2-3.71q24-36.12,48.17-72.18c.06-.08.29,0,1.06-.13C411.63,205.36,410.62,215.17,409.58,225Zm-.77-46.7c-19.22,27.56-37.14,56-55.41,84.22a17.63,17.63,0,0,0-2.32,7.92c-1.79,22.37-3.4,44.74-5.14,68.15-4.35-3.14-8.17-5.67-11.69-8.56-.9-.75-1.2-2.66-1.18-4,.75-40.46,1.53-80.92,2.55-121.37.05-2,1.92-4.54,3.67-5.83,21.58-15.87,43.29-31.56,65-47.29,4.41-3.2,8.85-6.35,14.37-10.3C417,154.86,416.69,167,408.81,178.28ZM298,80l116.41,42c-9.5,6.77-18,13.11-26.92,19-1.8,1.18-5.15,1.19-7.34.44-18.25-6.27-36.36-13-54.6-19.28-10-3.49-20.27-6.51-30.41-9.78-1.55-.5-3-1.2-4.86-1.92C292.81,100.39,295.29,90.62,298,80Z"/><path d="M187.11,38.36c-2.5,3.11-4.32,3.25-7.8,1.49C161,30.56,142.43,21.6,123,12c.33,2,.41,3,.64,3.92,3.42,13.14,6.89,26.26,10.28,39.41,2,7.7,1.91,7.65-5.5,10.31q-62,22.21-124,44.42C1,111.32-.35,112.82.08,116.46c.86,7.42,1.32,14.9,2,22.34q2.13,21.82,4.36,43.64c1.86,18,3.81,36,5.66,54,1.46,14.21,2.7,28.45,4.27,42.65,2.1,19.15,4.51,38.27,6.64,57.41,2.16,19.48,4.15,39,6.18,58.46.49,4.69,2.13,8.45,6.51,11,4.56,2.63,7.36,6.5,9,11.86C49.47,433,55,447.87,60,463c1.37,4.15,3.91,6.62,7.62,8.55,32.7,17,65.41,34,98,51.18,17,9,35.11,16.07,49.62,29.26a5.35,5.35,0,0,0,3.35,1.53V530.62l-67.43-55.14,17.41-29.27,50,43.36V475.23L173.54,436.4l16.76-29c9,6.9,17.6,13.34,26,20.12a6.5,6.5,0,0,0,2.33,1.31V396.68c-4.16-3.27-8.21-6.22-11.89-9.57-1.08-1-1.4-3.23-1.41-4.9-.09-13.82-.13-27.65,0-41.47a8.9,8.9,0,0,0-3.9-8c-9-6.75-17.88-13.76-26.89-20.55-2.57-1.94-3.92-3.9-3.85-7.42.26-13.82.11-27.65.11-41.47v-8.73c8.46,6.34,16.08,11.89,23.46,17.74,1.15.92,1.69,3.16,1.75,4.82.21,5.49-.12,11,.18,16.48a7.68,7.68,0,0,0,2.39,4.89c5.55,4.77,11.4,9.2,17,13.85a6.4,6.4,0,0,0,3,1.55V270.31l-.29.22-63-47.23c-.21,1.73-.43,2.64-.43,3.56,0,28.32.06,56.65,0,85,0,3.2.58,5.5,3.42,7.62,9.2,6.84,18,14.19,27.17,21.08a8.11,8.11,0,0,1,3.59,7.53c-.21,8.28-.07,16.57-.07,25.81-6.94-5.13-13.32-9.74-19.6-14.5-11.79-8.93-23.48-18-35.32-26.88a8.33,8.33,0,0,1-3.83-7.45c.09-41.32,0-82.65,0-124,0-.81.15-1.63.29-3.15,10.65,0,21.25-.1,31.85.12,1.41,0,2.86,1.56,4.18,2.54q26,19.29,52.08,38.7V220.36L181.2,192.22c12.33-7.63,24.12-15,36-22.16a2.53,2.53,0,0,1,1.35-.27V143a11.71,11.71,0,0,0-2.8.68c-32.79,12.54-65.58,25.11-98.25,37.95-5.24,2.06-8.94,1.58-13.43-2-10.3-8.12-21.14-15.54-32.73-23.95C120,139.11,167.47,122.8,215,106.65a10.88,10.88,0,0,1,3.56-.53V87.23a11.4,11.4,0,0,0-1.46.23c-16.51,3.91-33,7.94-49.49,11.92-.79.19-1.63.21-3,.38-4.8-18-9.49-35.61-14.45-54.2,7.94,3.9,15.15,7.43,22.35,11,2.39,1.17,4.72,2.45,7.13,3.58,9.29,4.38,9.3,4.36,16-3.6,7.52-9,15.06-18,23-27.49V.7c-1.34,1.47-2.42,2.62-3.42,3.82C205.78,15.77,196.29,26.94,187.11,38.36Zm-161,158.89c-.08-.81,0-1.64,0-3.8,4.42,6.75,8.12,12.54,12,18.24,12.33,18.34,24.73,36.63,37,55a11.11,11.11,0,0,1,1.66,5.13C78.63,294.38,80,317,82.37,339.48c.88,8.26-4.86,10.15-9.66,14.24-1.14-9.06-2.6-17.28-3.08-25.56-.29-5.07-2.69-8.3-6.15-11.32C55.61,310,47.65,303.17,40,296.05a12.66,12.66,0,0,1-4-7C32.55,258.46,29.38,227.85,26.14,197.25ZM136.85,487.7q-27.73-14.55-55.47-29.07c-4.16-2.18-7-5-8-10-1.1-5.15-3.16-10.1-5.28-16.62l69.14,55.34ZM140.18,458c-.92,1.55-1.73,3.16-2.84,5.2-3.46-2.67-6.73-5.13-9.93-7.68Q93.2,428.39,59,401.26c-1.16-.93-2.36-1.83-3.61-2.65-5.3-3.49-8.46-7.69-9.08-14.66-1.87-20.86-4.67-41.64-7.1-62.45a24.56,24.56,0,0,1,0-2.5c6.69,5.69,13,10.29,13.55,20.3.72,13.92,3.21,27.75,5.16,41.59a8.83,8.83,0,0,0,2.8,5.27Q99.27,417,138.05,447.61C143.69,452.07,143.79,451.91,140.18,458Zm-2-91.12c11.79,9,23.57,18,35.45,26.81,2.48,1.85,3,3.4,1.3,6.13-4,6.46-7.73,13.1-12.08,20.53l-41.7-43.71c0,5.42-.36,10.37.17,15.22.22,2,2.1,4,3.68,5.58,10.72,10.43,21.55,20.74,32.41,31.14l-4.72,7.94-77.9-62.28,36.48-27.93Q124.78,356.59,138.22,366.85ZM85.35,188.12c3.66,2.62,7,5.71,11,7.82,5.78,3.1,7,7.54,7.15,13.83q.93,55.9,2.83,111.8c.18,5.71-1.41,9.43-6.25,12.12-2.28,1.27-4.35,2.92-7.18,4.85-1-11.94-1.89-23.18-2.77-34.42-.67-8.62-1.83-17.25-1.73-25.87.09-9-3.38-16.16-8.19-23.4-16.57-24.93-32-50.65-49.41-75-8.11-11.36-8.87-23.55-10.52-36.1,0-.29.17-.61.54-1.79Zm32.19-67.31q-29.87,10.48-59.61,21.33c-3,1.07-5.07,1.05-7.68-.92-7.16-5.4-14.58-10.45-21.87-15.68-1.31-.94-2.48-2.07-4.11-3.45L139.81,80.61c2.7,10.1,5.28,19.79,8,30.08C137.61,114.09,127.52,117.3,117.54,120.81Z"/><path d="M166.51,200.58c-1.32-1-2.77-2.51-4.18-2.54-10.6-.22-21.2-.12-31.85-.12-.14,1.52-.29,2.34-.29,3.15,0,41.33.1,82.66,0,124A8.33,8.33,0,0,0,134,332.5c11.84,8.88,23.53,17.95,35.32,26.88,6.28,4.76,12.66,9.37,19.6,14.5,0-9.24-.14-17.53.07-25.81a8.11,8.11,0,0,0-3.59-7.53c-9.16-6.89-18-14.24-27.17-21.08-2.84-2.12-3.43-4.42-3.42-7.62.06-28.33,0-56.66,0-85,0-.92.22-1.83.43-3.56l63,47.23.29-.22v-31Q192.46,219.86,166.51,200.58Z" fill="#ccee38"/><path d="M283.54,223.94c.17,30,.38,60,.37,90a7.26,7.26,0,0,1-2.7,4.85q-10.51,8.42-21.4,16.34c-10.6,7.74-10.68,7.67-10.83,20.91-.07,5.69,0,11.38,0,17.48,19.36-14.37,38.07-28.17,56.61-42.22,1.47-1.11,2.4-3.87,2.4-5.87.11-41.33,0-82.65,0-124,0-1-.14-1.91-.26-3.43-10.5,0-20.79-.06-31.08.07a7,7,0,0,0-3.51,1.63c-4.34,3.08-8.62,6.24-12.9,9.41L219,239.62l-.45-.34v31l64.29-48A7.58,7.58,0,0,1,283.54,223.94Z" fill="#b3c938"/><path d="M215,106.65C167.47,122.8,120,139.11,71.38,155.75c11.59,8.41,22.43,15.83,32.73,23.95,4.49,3.55,8.19,4,13.43,2,32.67-12.84,65.46-25.41,98.25-37.95a11.71,11.71,0,0,1,2.8-.68V106.12A10.88,10.88,0,0,0,215,106.65Z" fill="#ebe8d9"/><path d="M221.86,143.31c34.24,13,68.4,26.14,102.66,39.06a8.35,8.35,0,0,0,6.61-.85c8.69-5.87,17.11-12.14,25.63-18.25,3.21-2.3,6.45-4.55,10.31-7.27-15-5.13-29.1-10-43.26-14.82Q273,123.87,222.19,106.69a11.7,11.7,0,0,0-3.6-.57V143A7,7,0,0,1,221.86,143.31Z" fill="#d2cdb9"/><path d="M229.55,388.5c1.56-1.48,3.12-3.9,3.16-5.92.3-14,.31-28,.14-42a9.7,9.7,0,0,1,4.17-8.5c9-6.77,18.15-13.38,27-20.39a9.56,9.56,0,0,0,3.3-6.44c.29-15.65.17-31.31.15-47a20.61,20.61,0,0,0-.6-3.27c-2.86,2-5.35,3.62-7.75,5.39-5.48,4.05-13,7.11-15.77,12.56-2.81,5.62-.64,13.62-1.21,20.53a10.31,10.31,0,0,1-3.34,6.39c-5.19,4.4-11,8.1-16.21,12.45-1.49,1.24-2.74,1.69-4,1.5v82.81l.37.28C222.61,394.1,226.32,391.55,229.55,388.5Z" fill="#b3c938"/><path d="M215.63,312.32c-5.65-4.65-11.5-9.08-17-13.85a7.68,7.68,0,0,1-2.39-4.89c-.3-5.48,0-11-.18-16.48-.06-1.66-.6-3.9-1.75-4.82-7.38-5.85-15-11.4-23.46-17.74v8.73c0,13.82.15,27.65-.11,41.47-.07,3.52,1.28,5.48,3.85,7.42,9,6.79,17.85,13.8,26.89,20.55a8.9,8.9,0,0,1,3.9,8c-.17,13.82-.13,27.65,0,41.47,0,1.67.33,3.92,1.41,4.9,3.68,3.35,7.73,6.3,11.89,9.57V313.87A6.4,6.4,0,0,1,215.63,312.32Z" fill="#ccee38"/><path d="M339.29,198.78c-1.75,1.29-3.62,3.83-3.67,5.83-1,40.45-1.8,80.91-2.55,121.37,0,1.37.28,3.28,1.18,4,3.52,2.89,7.34,5.42,11.69,8.56,1.74-23.41,3.35-45.78,5.14-68.15a17.63,17.63,0,0,1,2.32-7.92c18.27-28.2,36.19-56.66,55.41-84.22,7.88-11.3,8.15-23.42,9.82-37.09-5.52,3.95-10,7.1-14.37,10.3C382.58,167.22,360.87,182.91,339.29,198.78Z" fill="#d2cdb9"/><path d="M222.38,87.46q23.26,5.7,46.48,11.64c3.21.82,4.79.18,5.63-3.33,2.34-9.87,5-19.66,7.64-29.47,1.72-6.51,3.5-13,5.56-20.6-2.87,1.39-4.65,2.21-6.39,3.09-9.2,4.67-18.48,9.19-27.54,14.1-3.42,1.86-5.43,1.12-7.56-1.73-2.88-3.86-5.94-7.6-9-11.3C231.3,42.88,225.35,36,219,28.53l-.42.5v58.2A11.41,11.41,0,0,1,222.38,87.46Z" fill="#b3c938"/><path d="M195.58,56.52c-6.66,8-6.67,8-16,3.6-2.41-1.13-4.74-2.41-7.13-3.58-7.2-3.55-14.41-7.08-22.35-11,5,18.59,9.65,36.2,14.45,54.2,1.42-.17,2.26-.19,3-.38,16.5-4,33-8,49.49-11.92a11.4,11.4,0,0,1,1.46-.23V29C210.64,38.53,203.1,47.52,195.58,56.52Z" fill="#c9ed35"/><path d="M286.54,475.13,269.85,447l-50.67,43.09-.59-.52v41.05l.48.39Z" fill="#b3c938"/><path d="M168.57,446.21l-17.41,29.27,67.43,55.14V489.57Z" fill="#cbec39"/><path d="M363.44,267.73a8.3,8.3,0,0,0-1.2,3.71q-2.89,35.57-5.62,71.15A6.37,6.37,0,0,0,358,347a95,95,0,0,0,7.92,6.66c1.18-10.14,2.12-19.4,3.42-28.62a9.9,9.9,0,0,1,2.89-5.44Q385,307.77,398.12,296.3a13.73,13.73,0,0,0,5-9.78c2-20.53,4.27-41,6.45-61.54,1-9.81,2.05-19.62,3.09-29.56-.77.09-1,.05-1.06.13Q387.49,231.63,363.44,267.73Z" fill="#aabf32"/><path d="M327.21,346.25c-22,16.8-43.91,33.5-65.94,50.29L275.52,420,318,375.77c-.34,5.41-.36,10.06-1,14.62a12.11,12.11,0,0,1-2.95,6.45c-9.1,9.24-18.42,18.27-27.75,27.28-5.16,5-5.24,4.9-.57,12.23l77.75-62Z" fill="#d2cdb9"/><path d="M325.53,122.12c18.24,6.33,36.35,13,54.6,19.28,2.19.75,5.54.74,7.34-.44,8.88-5.84,17.42-12.18,26.92-19L298,80c-2.69,10.61-5.17,20.38-7.72,30.41,1.82.72,3.31,1.42,4.86,1.92C305.26,115.61,315.48,118.63,325.53,122.12Z" fill="#aabf32"/><path d="M216.26,427.5c-8.36-6.78-17-13.22-26-20.12l-16.76,29,45.05,38.83V428.81A6.5,6.5,0,0,1,216.26,427.5Z" fill="#ebe8d9"/><path d="M262.5,438.52c.88-.76,1.47-3.13.95-4-5.07-8.75-10.42-17.35-16-26.6-8.65,6.81-16.79,13.1-24.78,19.58-1.51,1.22-2.7,1.7-4,1.34v46.42l.52.45C234,463,248.31,450.83,262.5,438.52Z" fill="#d2cdb9"/><path d="M390.56,327.29a12.22,12.22,0,0,0-3.14,5.88c-2.06,15.49-3.74,31-5.79,46.54a9.66,9.66,0,0,1-3,5.85c-22.67,18.22-45.5,36.26-68.28,54.36-5.16,4.1-10.25,8.29-15.41,12.47l6.55,10.67c2.5-2,4.58-3.63,6.64-5.29,9.85-7.9,19.65-15.87,29.55-23.71,17.08-13.52,34.28-26.9,51.26-40.55a10.23,10.23,0,0,0,3.15-6.23c2-16.52,3.77-33.07,5.55-49.62.61-5.72,1.09-11.46,1.76-18.6C395.63,322.52,392.86,324.7,390.56,327.29Z" fill="#b3c938"/><path d="M256.61,192.31c-12.05-7.5-23.44-14.64-34.93-21.63a7,7,0,0,0-3.09-.89v50.57l.22.16Z" fill="#d2cdb9"/><path d="M217.24,170.06c-11.92,7.15-23.71,14.53-36,22.16l37.39,28.14V169.79A2.53,2.53,0,0,0,217.24,170.06Z" fill="#ebe8d9"/><path d="M301.71,487.08l.37.58c4.83-2.79,9.56-5.77,14.5-8.35,14.24-7.43,28.58-14.69,42.84-22.09,1.28-.66,2.88-1.64,3.31-2.84,2.32-6.49,4.33-13.08,6.44-19.64l-.85-.55Z" fill="#b3c938"/><polygon points="139.81 80.61 117.54 120.81 147.84 110.69 139.81 80.61" fill="#ebe7db"/><polygon points="297.37 80.61 319.64 120.81 289.35 110.69 297.37 80.61" fill="#ebe7db"/></g></g></svg>